<svg width="26" height="25" viewBox="0 0 26 25" fill="none" xmlns="http://www.w3.org/2000/svg">
<g id="Group">
<path id="Path" d="M10.6848 10.1847C10.9218 9.16314 11.8523 8.45484 12.9001 8.49832C14.0727 8.43337 15.078 9.32697 15.151 10.4992C15.151 12.0037 13.0001 12.5 13.0001 13.5004" stroke="#4070F4" stroke-width="1.5" stroke-linecap="round" stroke-linejoin="round"/>
<path id="Path_2" d="M13.1253 16.2517C13.1252 16.3207 13.0692 16.3766 13.0002 16.3766C12.9311 16.3766 12.8752 16.3206 12.8752 16.2516C12.8751 16.1826 12.931 16.1266 13 16.1265C13.0333 16.1265 13.0651 16.1396 13.0886 16.1631C13.1121 16.1866 13.1253 16.2185 13.1253 16.2517" stroke="#4070F4" stroke-width="1.5" stroke-linecap="round" stroke-linejoin="round"/>
<path id="Path_3" fill-rule="evenodd" clip-rule="evenodd" d="M5.62861 17.6604C2.94551 13.8307 3.63502 8.58534 7.21672 5.57913C10.7984 2.57293 16.0839 2.80335 19.3903 6.10985C22.6968 9.41634 22.9273 14.7018 19.9211 18.2835C16.9149 21.8652 11.6695 22.5547 7.8398 19.8716L4.99688 20.5033L5.62861 17.6604Z" stroke="#4070F4" stroke-width="1.5" stroke-linecap="round" stroke-linejoin="round"/>
</g>
</svg>
